<?xml version="1.0" encoding="utf-8"?>
<!-- Generator: Adobe Illustrator 23.0.0, SVG Export Plug-In . SVG Version: 6.00 Build 0)  -->
<svg version="1.1" id="Layer_1" xmlns="http://www.w3.org/2000/svg" xmlns:xlink="http://www.w3.org/1999/xlink" x="0px" y="0px"
	 viewBox="0 0 422.438 123.311" style="enable-background:new 0 0 422.438 123.311;" xml:space="preserve">
<g>
	<path style="fill:#2B0A3D;" d="M147.64,59.259c-5.038,0-8.875-1.401-11.513-4.203c-2.638-2.801-3.957-6.781-3.957-11.938
		c0-2.563,0.402-4.852,1.207-6.864c0.805-2.012,1.907-3.711,3.309-5.097c1.401-1.386,3.07-2.437,5.008-3.152
		c1.938-0.715,4.039-1.073,6.305-1.073c1.312,0,2.504,0.097,3.577,0.291c1.073,0.194,2.012,0.418,2.817,0.671
		c0.805,0.253,1.476,0.514,2.012,0.782c0.537,0.268,0.924,0.477,1.163,0.626l-2.012,5.634c-0.955-0.506-2.064-0.939-3.332-1.297
		c-1.267-0.357-2.705-0.536-4.314-0.536c-1.073,0-2.124,0.179-3.152,0.536c-1.028,0.358-1.938,0.932-2.728,1.722
		c-0.79,0.79-1.424,1.811-1.9,3.063c-0.477,1.252-0.715,2.772-0.715,4.561c0,1.431,0.157,2.765,0.47,4.002
		c0.313,1.237,0.819,2.303,1.52,3.197c0.7,0.894,1.617,1.603,2.75,2.124c1.132,0.521,2.504,0.782,4.113,0.782
		c1.013,0,1.923-0.059,2.728-0.179c0.805-0.119,1.521-0.261,2.146-0.425c0.626-0.164,1.177-0.35,1.654-0.559
		c0.477-0.208,0.909-0.402,1.296-0.581l1.923,5.589c-0.984,0.597-2.37,1.133-4.158,1.61S149.995,59.259,147.64,59.259z"/>
	<path style="fill:#2B0A3D;" d="M172.858,41.016c-0.597-0.149-1.296-0.305-2.102-0.47c-0.805-0.164-1.669-0.246-2.593-0.246
		c-0.417,0-0.917,0.038-1.498,0.112c-0.582,0.075-1.021,0.156-1.319,0.246v17.975h-6.662V36.366c1.192-0.417,2.6-0.812,4.226-1.185
		c1.624-0.373,3.435-0.559,5.432-0.559c0.358,0,0.79,0.022,1.297,0.067c0.506,0.045,1.013,0.105,1.52,0.179
		c0.507,0.075,1.013,0.164,1.521,0.268c0.506,0.105,0.939,0.231,1.297,0.38L172.858,41.016z"/>
	<path style="fill:#2B0A3D;" d="M182.203,34.488c1.967,0,3.606,0.224,4.918,0.671c1.312,0.447,2.362,1.088,3.152,1.922
		c0.79,0.835,1.348,1.849,1.677,3.041c0.328,1.193,0.492,2.52,0.492,3.979v13.861c-0.955,0.209-2.28,0.455-3.979,0.738
		c-1.699,0.283-3.756,0.425-6.17,0.425c-1.52,0-2.899-0.134-4.136-0.402c-1.237-0.268-2.303-0.708-3.197-1.319
		c-0.894-0.611-1.58-1.409-2.057-2.392c-0.477-0.984-0.715-2.191-0.715-3.622c0-1.371,0.275-2.533,0.827-3.487
		c0.551-0.954,1.289-1.714,2.213-2.28c0.923-0.566,1.982-0.976,3.174-1.23c1.192-0.253,2.429-0.38,3.711-0.38
		c0.864,0,1.632,0.038,2.303,0.112c0.67,0.075,1.214,0.172,1.632,0.291v-0.626c0-1.132-0.343-2.042-1.028-2.728
		c-0.686-0.685-1.878-1.028-3.577-1.028c-1.133,0-2.251,0.083-3.354,0.246c-1.103,0.164-2.057,0.396-2.861,0.693l-0.85-5.365
		c0.387-0.119,0.872-0.246,1.453-0.38c0.582-0.134,1.214-0.253,1.9-0.357c0.686-0.104,1.408-0.194,2.168-0.269
		C180.661,34.526,181.428,34.488,182.203,34.488z M182.74,53.983c0.655,0,1.281-0.015,1.878-0.045
		c0.596-0.029,1.073-0.074,1.431-0.134v-5.052c-0.268-0.06-0.67-0.119-1.207-0.179c-0.537-0.059-1.028-0.089-1.476-0.089
		c-0.626,0-1.215,0.038-1.766,0.112c-0.552,0.075-1.036,0.217-1.453,0.425c-0.418,0.209-0.746,0.492-0.984,0.85
		c-0.239,0.358-0.357,0.805-0.357,1.341c0,1.044,0.35,1.766,1.051,2.168C180.556,53.781,181.517,53.983,182.74,53.983z"/>
	<path style="fill:#2B0A3D;" d="M205.32,23.936c1.252,0,2.399,0.127,3.443,0.38c1.043,0.253,1.848,0.5,2.414,0.738l-1.296,5.321
		c-0.597-0.269-1.245-0.47-1.945-0.604c-0.701-0.134-1.349-0.202-1.945-0.202c-0.805,0-1.483,0.112-2.035,0.335
		c-0.552,0.224-0.983,0.53-1.296,0.917c-0.313,0.388-0.537,0.85-0.671,1.386c-0.134,0.537-0.201,1.118-0.201,1.744v1.163h8.227
		v5.544h-8.227v17.975h-6.662V33.862c0-3.041,0.856-5.455,2.571-7.243C199.41,24.83,201.951,23.936,205.32,23.936z"/>
	<path style="fill:#2B0A3D;" d="M210.417,29.256l6.662-1.073v6.93h8.004v5.544h-8.004v8.272c0,1.401,0.246,2.519,0.737,3.354
		c0.492,0.835,1.482,1.252,2.974,1.252c0.716,0,1.453-0.067,2.214-0.201c0.76-0.134,1.453-0.32,2.079-0.559l0.938,5.187
		c-0.805,0.329-1.699,0.611-2.683,0.85s-2.191,0.358-3.622,0.358c-1.818,0-3.324-0.246-4.516-0.738
		c-1.192-0.492-2.146-1.177-2.861-2.057c-0.716-0.879-1.215-1.945-1.498-3.197c-0.284-1.252-0.425-2.638-0.425-4.158V29.256z"/>
	<path style="fill:#2B0A3D;" d="M233.889,53.849c1.223,0,2.087-0.119,2.594-0.358c0.507-0.238,0.76-0.7,0.76-1.386
		c0-0.537-0.328-1.006-0.983-1.409c-0.656-0.402-1.654-0.856-2.996-1.364c-1.043-0.387-1.989-0.79-2.839-1.207
		s-1.572-0.917-2.169-1.498s-1.058-1.274-1.386-2.079s-0.492-1.773-0.492-2.906c0-2.206,0.82-3.95,2.46-5.231
		c1.639-1.281,3.89-1.923,6.751-1.923c1.431,0,2.802,0.127,4.114,0.38c1.311,0.253,2.354,0.529,3.13,0.827l-1.163,5.187
		c-0.775-0.268-1.617-0.506-2.526-0.715c-0.909-0.208-1.93-0.313-3.062-0.313c-2.087,0-3.13,0.581-3.13,1.744
		c0,0.269,0.045,0.507,0.134,0.715c0.09,0.209,0.269,0.41,0.537,0.604c0.268,0.194,0.633,0.404,1.095,0.628
		c0.462,0.226,1.051,0.474,1.767,0.744c1.46,0.542,2.667,1.075,3.622,1.601c0.953,0.526,1.706,1.094,2.258,1.703
		c0.551,0.61,0.938,1.287,1.162,2.03s0.336,1.606,0.336,2.587c0,2.32-0.872,4.075-2.616,5.265c-1.743,1.189-4.211,1.784-7.399,1.784
		c-2.087,0-3.823-0.179-5.209-0.537c-1.387-0.357-2.348-0.655-2.885-0.894l1.118-5.41c1.133,0.447,2.295,0.798,3.487,1.05
		C231.55,53.722,232.727,53.849,233.889,53.849z"/>
	<path style="fill:#2B0A3D;" d="M258.391,46.158c0-2.146-0.275-3.667-0.827-4.561c-0.552-0.894-1.498-1.341-2.839-1.341
		c-0.418,0-0.85,0.022-1.297,0.067c-0.447,0.045-0.88,0.097-1.297,0.157v18.153h-6.662V35.919c0.566-0.149,1.229-0.306,1.99-0.47
		c0.76-0.164,1.564-0.313,2.414-0.447c0.85-0.134,1.722-0.238,2.616-0.313c0.894-0.074,1.772-0.112,2.638-0.112
		c1.699,0,3.077,0.217,4.136,0.648c1.058,0.433,1.93,0.947,2.616,1.542c0.953-0.685,2.049-1.222,3.286-1.609
		c1.236-0.387,2.377-0.582,3.421-0.582c1.878,0,3.42,0.262,4.627,0.783c1.208,0.522,2.169,1.26,2.885,2.213
		c0.715,0.954,1.207,2.087,1.475,3.398c0.269,1.312,0.403,2.772,0.403,4.382v13.28h-6.663V46.158c0-2.146-0.275-3.667-0.827-4.561
		c-0.552-0.894-1.497-1.341-2.839-1.341c-0.357,0-0.857,0.089-1.498,0.268c-0.642,0.179-1.17,0.403-1.587,0.671
		c0.208,0.686,0.342,1.409,0.402,2.168c0.06,0.76,0.089,1.573,0.089,2.437v12.833h-6.662V46.158z"/>
	<path style="fill:#2B0A3D;" d="M289.109,34.488c1.968,0,3.606,0.224,4.919,0.671c1.312,0.447,2.361,1.088,3.152,1.922
		c0.789,0.835,1.348,1.849,1.677,3.041c0.327,1.193,0.491,2.52,0.491,3.979v13.861c-0.954,0.209-2.28,0.455-3.979,0.738
		c-1.699,0.283-3.756,0.425-6.17,0.425c-1.521,0-2.899-0.134-4.136-0.402c-1.237-0.268-2.303-0.708-3.197-1.319
		c-0.895-0.611-1.58-1.409-2.057-2.392c-0.478-0.984-0.716-2.191-0.716-3.622c0-1.371,0.275-2.533,0.827-3.487
		c0.552-0.954,1.289-1.714,2.214-2.28c0.923-0.566,1.981-0.976,3.174-1.23c1.192-0.253,2.43-0.38,3.712-0.38
		c0.864,0,1.632,0.038,2.303,0.112c0.67,0.075,1.214,0.172,1.632,0.291v-0.626c0-1.132-0.343-2.042-1.028-2.728
		c-0.687-0.685-1.878-1.028-3.577-1.028c-1.133,0-2.251,0.083-3.354,0.246c-1.104,0.164-2.057,0.396-2.861,0.693l-0.85-5.365
		c0.387-0.119,0.872-0.246,1.453-0.38c0.581-0.134,1.214-0.253,1.9-0.357c0.686-0.104,1.408-0.194,2.168-0.269
		C287.567,34.526,288.334,34.488,289.109,34.488z M289.646,53.983c0.655,0,1.281-0.015,1.878-0.045
		c0.596-0.029,1.073-0.074,1.431-0.134v-5.052c-0.269-0.06-0.671-0.119-1.207-0.179c-0.537-0.059-1.028-0.089-1.476-0.089
		c-0.626,0-1.215,0.038-1.767,0.112c-0.552,0.075-1.036,0.217-1.453,0.425c-0.418,0.209-0.745,0.492-0.983,0.85
		c-0.239,0.358-0.357,0.805-0.357,1.341c0,1.044,0.35,1.766,1.051,2.168C287.462,53.781,288.424,53.983,289.646,53.983z"/>
	<path style="fill:#2B0A3D;" d="M302.031,35.919c1.133-0.328,2.594-0.633,4.382-0.917c1.789-0.283,3.667-0.425,5.634-0.425
		c1.997,0,3.659,0.262,4.985,0.783c1.326,0.522,2.377,1.26,3.152,2.213c0.775,0.954,1.326,2.087,1.654,3.398
		c0.328,1.312,0.492,2.772,0.492,4.382v13.28h-6.662V46.158c0-2.146-0.284-3.667-0.85-4.561c-0.566-0.894-1.625-1.341-3.175-1.341
		c-0.477,0-0.983,0.022-1.521,0.067c-0.536,0.045-1.014,0.097-1.431,0.157v18.153h-6.662V35.919z"/>
	<path style="fill:#2B0A3D;" d="M331.764,53.849c1.223,0,2.087-0.119,2.594-0.358c0.507-0.238,0.76-0.7,0.76-1.386
		c0-0.537-0.328-1.006-0.983-1.409c-0.656-0.402-1.654-0.856-2.996-1.364c-1.043-0.387-1.989-0.79-2.839-1.207
		s-1.572-0.917-2.169-1.498s-1.058-1.274-1.386-2.079s-0.492-1.773-0.492-2.906c0-2.206,0.82-3.95,2.46-5.231
		c1.639-1.281,3.89-1.923,6.751-1.923c1.431,0,2.802,0.127,4.114,0.38c1.311,0.253,2.354,0.529,3.13,0.827l-1.163,5.187
		c-0.775-0.268-1.617-0.506-2.526-0.715c-0.909-0.208-1.93-0.313-3.062-0.313c-2.087,0-3.13,0.581-3.13,1.744
		c0,0.269,0.045,0.507,0.134,0.715c0.09,0.209,0.269,0.41,0.537,0.604c0.268,0.194,0.633,0.404,1.095,0.628
		c0.462,0.226,1.051,0.474,1.767,0.744c1.46,0.542,2.667,1.075,3.622,1.601c0.953,0.526,1.706,1.094,2.258,1.703
		c0.551,0.61,0.938,1.287,1.162,2.03s0.336,1.606,0.336,2.587c0,2.32-0.872,4.075-2.616,5.265c-1.743,1.189-4.211,1.784-7.399,1.784
		c-2.087,0-3.823-0.179-5.209-0.537c-1.387-0.357-2.348-0.655-2.885-0.894l1.118-5.41c1.133,0.447,2.295,0.798,3.487,1.05
		C329.425,53.722,330.602,53.849,331.764,53.849z"/>
	<path style="fill:#2B0A3D;" d="M343.344,58.633V25.009l6.662-1.073v11.268c0.447-0.148,1.021-0.291,1.722-0.424
		c0.699-0.134,1.378-0.202,2.034-0.202c1.907,0,3.494,0.262,4.762,0.783c1.267,0.522,2.28,1.26,3.04,2.213
		c0.761,0.954,1.297,2.087,1.61,3.398c0.312,1.312,0.47,2.772,0.47,4.382v13.28h-6.663V46.158c0-2.146-0.275-3.667-0.827-4.561
		c-0.552-0.894-1.572-1.341-3.062-1.341c-0.597,0-1.155,0.052-1.677,0.157s-0.991,0.216-1.408,0.335v17.885H343.344z"/>
	<path style="fill:#2B0A3D;" d="M373.614,28.317c0,1.223-0.396,2.184-1.185,2.884c-0.79,0.701-1.722,1.051-2.795,1.051
		c-1.072,0-2.005-0.35-2.794-1.051c-0.79-0.7-1.186-1.662-1.186-2.884c0-1.222,0.396-2.183,1.186-2.884
		c0.789-0.7,1.722-1.051,2.794-1.051c1.073,0,2.005,0.351,2.795,1.051C373.219,26.134,373.614,27.096,373.614,28.317z
		 M372.988,58.633h-6.662V35.114h6.662V58.633z"/>
	<path style="fill:#2B0A3D;" d="M397.759,46.874c0,1.818-0.224,3.473-0.671,4.963c-0.447,1.491-1.103,2.772-1.967,3.845
		c-0.865,1.073-1.938,1.908-3.22,2.504c-1.282,0.596-2.758,0.895-4.427,0.895c-0.924,0-1.788-0.089-2.593-0.269
		c-0.805-0.179-1.581-0.432-2.325-0.76v8.853h-6.662V35.919c0.596-0.179,1.281-0.35,2.057-0.514
		c0.774-0.164,1.587-0.306,2.437-0.425s1.714-0.216,2.594-0.291c0.879-0.074,1.722-0.112,2.526-0.112
		c1.938,0,3.666,0.291,5.187,0.872c1.521,0.582,2.802,1.401,3.845,2.459c1.044,1.058,1.841,2.347,2.393,3.867
		C397.482,43.296,397.759,44.996,397.759,46.874z M390.963,47.052c0-2.057-0.463-3.704-1.387-4.941
		c-0.924-1.236-2.296-1.855-4.113-1.855c-0.597,0-1.147,0.022-1.654,0.067c-0.508,0.045-0.925,0.097-1.252,0.157v12.028
		c0.417,0.268,0.961,0.492,1.632,0.67c0.671,0.179,1.349,0.269,2.034,0.269C389.382,53.446,390.963,51.315,390.963,47.052z"/>
</g>
<g>
	<path style="fill:#2B0A3D;" d="M141.399,98.574c-1.284,0-2.477-0.23-3.579-0.69c-1.102-0.46-2.06-1.13-2.875-2.012
		c-0.814-0.881-1.457-1.969-1.926-3.262c-0.47-1.293-0.704-2.774-0.704-4.441s0.253-3.147,0.762-4.441
		c0.507-1.293,1.183-2.381,2.026-3.262c0.843-0.881,1.82-1.547,2.932-1.998c1.111-0.45,2.271-0.675,3.478-0.675
		c0.748,0,1.428,0.048,2.041,0.144c0.613,0.096,1.15,0.216,1.61,0.359c0.459,0.144,0.852,0.288,1.178,0.431
		c0.326,0.144,0.575,0.273,0.748,0.388l-0.632,1.696c-0.479-0.288-1.088-0.57-1.826-0.848c-0.738-0.277-1.652-0.417-2.745-0.417
		c-1.246,0-2.333,0.211-3.263,0.632c-0.93,0.422-1.71,1.016-2.343,1.782c-0.632,0.767-1.106,1.677-1.422,2.73
		c-0.316,1.054-0.475,2.223-0.475,3.507c0,1.322,0.158,2.515,0.475,3.579c0.316,1.063,0.78,1.969,1.394,2.716
		c0.613,0.747,1.365,1.322,2.256,1.725s1.911,0.604,3.061,0.604c1.265,0,2.323-0.12,3.176-0.359c0.853-0.239,1.499-0.483,1.94-0.733
		l0.546,1.667c-0.134,0.096-0.364,0.207-0.69,0.331c-0.326,0.125-0.738,0.254-1.236,0.388c-0.499,0.134-1.073,0.245-1.725,0.331
		C142.931,98.531,142.203,98.574,141.399,98.574z"/>
	<path style="fill:#2B0A3D;" d="M161.031,90.727c0,1.169-0.168,2.233-0.503,3.19c-0.335,0.958-0.805,1.773-1.409,2.443
		c-0.604,0.671-1.317,1.193-2.141,1.566c-0.824,0.374-1.734,0.561-2.731,0.561s-1.907-0.187-2.73-0.561
		c-0.824-0.374-1.538-0.896-2.142-1.566c-0.604-0.67-1.073-1.485-1.408-2.443c-0.335-0.958-0.503-2.021-0.503-3.19
		c0-1.168,0.167-2.232,0.503-3.19c0.335-0.958,0.805-1.777,1.408-2.458c0.604-0.68,1.317-1.208,2.142-1.581
		c0.824-0.374,1.734-0.561,2.73-0.561s1.907,0.187,2.731,0.561c0.824,0.374,1.538,0.901,2.141,1.581
		c0.604,0.68,1.073,1.5,1.409,2.458C160.863,88.495,161.031,89.559,161.031,90.727z M159.047,90.727
		c0-1.858-0.431-3.339-1.293-4.441c-0.862-1.102-2.031-1.653-3.507-1.653s-2.644,0.551-3.506,1.653
		c-0.862,1.102-1.293,2.583-1.293,4.441c0,1.859,0.431,3.334,1.293,4.427s2.031,1.638,3.506,1.638s2.645-0.546,3.507-1.638
		S159.047,92.586,159.047,90.727z"/>
	<path style="fill:#2B0A3D;" d="M162.928,83.8c0.555-0.153,1.279-0.326,2.17-0.517s2.045-0.288,3.464-0.288
		c1.877,0,3.238,0.546,4.082,1.638c0.096-0.076,0.282-0.206,0.561-0.388c0.277-0.182,0.627-0.369,1.049-0.561
		s0.915-0.354,1.48-0.489c0.565-0.134,1.193-0.201,1.883-0.201c1.13,0,2.045,0.168,2.745,0.503c0.699,0.335,1.24,0.805,1.624,1.409
		c0.383,0.604,0.642,1.327,0.776,2.17c0.134,0.843,0.201,1.763,0.201,2.759v8.307h-1.868V90.44c0-0.978-0.043-1.826-0.129-2.544
		c-0.086-0.719-0.259-1.312-0.518-1.782c-0.258-0.469-0.628-0.824-1.106-1.063c-0.479-0.239-1.102-0.359-1.868-0.359
		c-0.575,0-1.098,0.053-1.567,0.158c-0.47,0.105-0.876,0.235-1.222,0.388c-0.345,0.153-0.627,0.307-0.848,0.459
		c-0.221,0.154-0.379,0.269-0.475,0.345c0.173,0.499,0.302,1.059,0.388,1.682c0.086,0.623,0.129,1.279,0.129,1.969v8.451h-1.868
		V90.44c0-0.978-0.043-1.826-0.129-2.544c-0.086-0.719-0.264-1.312-0.532-1.782c-0.269-0.469-0.647-0.824-1.135-1.063
		c-0.489-0.239-1.136-0.359-1.94-0.359c-0.901,0-1.663,0.048-2.285,0.144c-0.623,0.096-1.021,0.183-1.193,0.259v13.05h-1.868V83.8z"
		/>
	<path style="fill:#2B0A3D;" d="M185.577,83.8c0.555-0.153,1.279-0.326,2.17-0.517s2.045-0.288,3.464-0.288
		c1.877,0,3.238,0.546,4.082,1.638c0.096-0.076,0.282-0.206,0.561-0.388c0.277-0.182,0.627-0.369,1.049-0.561
		s0.915-0.354,1.48-0.489c0.565-0.134,1.193-0.201,1.883-0.201c1.13,0,2.045,0.168,2.745,0.503c0.699,0.335,1.24,0.805,1.624,1.409
		c0.383,0.604,0.642,1.327,0.776,2.17c0.134,0.843,0.201,1.763,0.201,2.759v8.307h-1.868V90.44c0-0.978-0.043-1.826-0.129-2.544
		c-0.086-0.719-0.259-1.312-0.518-1.782c-0.258-0.469-0.628-0.824-1.106-1.063c-0.479-0.239-1.102-0.359-1.868-0.359
		c-0.575,0-1.098,0.053-1.567,0.158c-0.47,0.105-0.876,0.235-1.222,0.388c-0.345,0.153-0.627,0.307-0.848,0.459
		c-0.221,0.154-0.379,0.269-0.475,0.345c0.173,0.499,0.302,1.059,0.388,1.682c0.086,0.623,0.129,1.279,0.129,1.969v8.451h-1.868
		V90.44c0-0.978-0.043-1.826-0.129-2.544c-0.086-0.719-0.264-1.312-0.532-1.782c-0.269-0.469-0.647-0.824-1.135-1.063
		c-0.489-0.239-1.136-0.359-1.94-0.359c-0.901,0-1.663,0.048-2.285,0.144c-0.623,0.096-1.021,0.183-1.193,0.259v13.05h-1.868V83.8z"
		/>
	<path style="fill:#2B0A3D;" d="M219.638,97.625c-0.557,0.154-1.304,0.326-2.242,0.518c-0.939,0.191-2.089,0.288-3.449,0.288
		c-1.111,0-2.041-0.163-2.788-0.489s-1.352-0.786-1.812-1.38c-0.459-0.594-0.79-1.312-0.991-2.156
		c-0.201-0.843-0.302-1.772-0.302-2.788v-8.335h1.868v7.732c0,1.054,0.076,1.945,0.23,2.673c0.152,0.728,0.402,1.317,0.747,1.768
		s0.79,0.776,1.337,0.977c0.546,0.201,1.211,0.302,1.997,0.302c0.882,0,1.648-0.047,2.3-0.144c0.651-0.096,1.063-0.182,1.236-0.259
		V83.283h1.868V97.625z"/>
	<path style="fill:#2B0A3D;" d="M222.426,83.8c0.556-0.153,1.303-0.326,2.242-0.517c0.938-0.191,2.088-0.288,3.449-0.288
		c1.131,0,2.074,0.163,2.831,0.489s1.36,0.79,1.811,1.394c0.45,0.604,0.771,1.327,0.964,2.17c0.19,0.844,0.287,1.773,0.287,2.788
		v8.307h-1.868V90.44c0-1.054-0.072-1.945-0.216-2.673c-0.144-0.728-0.384-1.322-0.719-1.782s-0.776-0.791-1.322-0.992
		s-1.231-0.302-2.055-0.302c-0.882,0-1.644,0.048-2.285,0.144c-0.643,0.096-1.06,0.183-1.251,0.259v13.05h-1.868V83.8z"/>
	<path style="fill:#2B0A3D;" d="M238.925,78.798c0,0.441-0.135,0.791-0.402,1.049c-0.269,0.259-0.595,0.388-0.978,0.388
		c-0.384,0-0.709-0.129-0.978-0.388s-0.402-0.608-0.402-1.049c0-0.44,0.134-0.791,0.402-1.049c0.269-0.259,0.594-0.388,0.978-0.388
		c0.383,0,0.709,0.129,0.978,0.388C238.79,78.008,238.925,78.358,238.925,78.798z M238.493,98.143h-1.868v-14.86h1.868V98.143z"/>
	<path style="fill:#2B0A3D;" d="M243.035,83.283h5.921v1.581h-5.921v7.905c0,0.843,0.072,1.528,0.216,2.055
		c0.144,0.527,0.35,0.934,0.618,1.222c0.268,0.287,0.594,0.479,0.977,0.575c0.384,0.096,0.805,0.144,1.265,0.144
		c0.786,0,1.418-0.09,1.897-0.273c0.479-0.182,0.853-0.349,1.121-0.503l0.46,1.552c-0.269,0.172-0.738,0.369-1.408,0.589
		c-0.671,0.22-1.399,0.331-2.185,0.331c-0.92,0-1.691-0.12-2.314-0.359c-0.623-0.24-1.121-0.604-1.494-1.092
		c-0.374-0.489-0.638-1.097-0.791-1.825c-0.153-0.728-0.229-1.59-0.229-2.587V78.914l1.868-0.345V83.283z"/>
	<path style="fill:#2B0A3D;" d="M254.302,98.459c-0.624-1.172-1.229-2.391-1.815-3.654c-0.587-1.264-1.135-2.542-1.645-3.835
		s-0.977-2.586-1.399-3.878s-0.786-2.562-1.09-3.809h1.983c0.21,0.919,0.479,1.912,0.804,2.975s0.693,2.161,1.104,3.292
		c0.412,1.131,0.866,2.291,1.363,3.479c0.498,1.188,1.041,2.357,1.629,3.505c0.427-1.184,0.805-2.302,1.135-3.355
		c0.329-1.053,0.634-2.101,0.915-3.145c0.28-1.044,0.552-2.111,0.813-3.203c0.261-1.091,0.528-2.274,0.801-3.548h1.869
		c-0.624,2.781-1.325,5.485-2.104,8.113c-0.777,2.628-1.628,5.03-2.55,7.208c-0.364,0.862-0.738,1.604-1.123,2.228
		c-0.386,0.623-0.813,1.135-1.284,1.538c-0.472,0.402-1.021,0.699-1.646,0.891c-0.626,0.191-1.361,0.288-2.208,0.288
		c-0.481,0-0.919-0.058-1.313-0.172c-0.395-0.115-0.64-0.201-0.735-0.259l0.373-1.552c0.077,0.058,0.293,0.139,0.648,0.245
		c0.355,0.105,0.726,0.158,1.109,0.158c0.538,0,1.023-0.057,1.455-0.172c0.433-0.115,0.821-0.312,1.167-0.589
		s0.658-0.637,0.937-1.078C253.774,99.686,254.043,99.13,254.302,98.459z"/>
</g>
<g>
	<path style="fill:none;" d="M33.971,29.529v-0.502l-0.032-0.032C33.959,29.171,33.971,29.349,33.971,29.529z"/>
	<path style="fill:#2B0A3D;" d="M77.807,59.896l-6.714-6.714l-3.896-3.896l-6.711-6.711l-8.47-8.47l-9.169-9.169h-8.876v0.006
		l-4.585,0.003c-2.532,0-4.585,2.053-4.585,4.585v13.745c0,2.532,2.053,4.585,4.585,4.585s4.585-2.053,4.585-4.585v-9.169h5.077
		l27.299,27.299l-5.261,9.112c2.434,1.996,4.722,4.163,6.845,6.484l5.13-8.884l15.925,15.925v5.079v4.585
		c0,2.532,2.053,4.585,4.585,4.585c2.532,0,4.585-2.053,4.585-4.585V93.21v-4.09v-8.876l-0.302-0.302L77.807,59.896z M33.971,29.529
		c0-0.181-0.012-0.359-0.032-0.534l0.032,0.032V29.529z"/>
	<path style="fill:#2B0A3D;" d="M70.647,34.105h11.46h10.589h0.874c2.532,0,4.585-2.053,4.585-4.585
		c0-2.532-2.053-4.585-4.585-4.585H70.647c-2.532,0-4.585,2.053-4.585,4.585C66.063,32.052,68.115,34.105,70.647,34.105z"/>
	<path style="fill:#95E616;" d="M61.086,70.516L50.345,89.12H33.971v-9.178c0-2.532-2.053-4.585-4.585-4.585
		s-4.585,2.053-4.585,4.585v9.178v4.594c0,2.436,1.901,4.429,4.302,4.576l4.867,0.009v-0.009h21.081h0.587l5.294-9.169L67.931,77
		C65.808,74.679,63.52,72.512,61.086,70.516z"/>
</g>
<g>
</g>
<g>
</g>
<g>
</g>
<g>
</g>
<g>
</g>
<g>
</g>
</svg>
